<svg xmlns="http://www.w3.org/2000/svg" viewBox="0 0 800 400" fill="none">
  <defs>
    <linearGradient id="g1" x1="0%" y1="0%" x2="100%" y2="100%">
      <stop offset="0%" style="stop-color:#e63946;stop-opacity:0.15"/>
      <stop offset="100%" style="stop-color:#f4a0b1;stop-opacity:0.05"/>
    </linearGradient>
  </defs>
  <!-- Decorative hearts pattern -->
  <circle cx="150" cy="120" r="80" fill="url(#g1)"/>
  <circle cx="650" cy="280" r="100" fill="url(#g1)"/>
  <circle cx="400" cy="200" r="60" fill="url(#g1)"/>
  <!-- Heart shapes -->
  <g transform="translate(350,150) scale(0.5)" opacity="0.2">
    <path d="M0-50 C-30-80-80-80-80-40 C-80 0-40 30 0 70 C40 30 80 0 80-40 C80-80 30-80 0-50Z" fill="#e63946"/>
  </g>
  <g transform="translate(200,250) scale(0.3)" opacity="0.15">
    <path d="M0-50 C-30-80-80-80-80-40 C-80 0-40 30 0 70 C40 30 80 0 80-40 C80-80 30-80 0-50Z" fill="#f4a0b1"/>
  </g>
  <g transform="translate(600,100) scale(0.4)" opacity="0.12">
    <path d="M0-50 C-30-80-80-80-80-40 C-80 0-40 30 0 70 C40 30 80 0 80-40 C80-80 30-80 0-50Z" fill="#ff6b81"/>
  </g>
  <!-- Exchange arrows -->
  <g transform="translate(380,300) scale(0.6)" opacity="0.1">
    <path d="M-40 0 L40 0 M30-10 L40 0 L30 10" stroke="#e63946" stroke-width="4" fill="none"/>
    <path d="M40 20 L-40 20 M-30 10 L-40 20 L-30 30" stroke="#f4a0b1" stroke-width="4" fill="none"/>
  </g>
</svg>
